<svg width="884" height="329" viewBox="0 0 884 329" fill="none" xmlns="http://www.w3.org/2000/svg">
<path d="M47.6636 230.384H81.4829V316.961H47.6636V230.384ZM209.85 306.68H189.559L263.42 230.384H297.239V316.961H263.42V257.98L273.566 262.174L220.131 316.961H179.548L125.979 262.309L136.26 258.116V316.961H102.44V230.384H136.26L209.85 306.68ZM338.374 303.839V283.548H430.904V303.839H338.374ZM308.072 316.961L366.106 230.384H403.713L462.288 316.961H425.087L374.899 239.447H395.055L345.273 316.961H308.072ZM543.94 319.667C532.215 319.667 521.438 318.945 511.608 317.502C501.868 316.15 493.391 313.805 486.176 310.468C479.052 307.041 473.505 302.396 469.537 296.534C465.659 290.672 463.72 283.277 463.72 274.349C463.72 265.421 465.704 257.98 469.672 252.028C473.64 245.986 479.322 241.206 486.717 237.689C494.203 234.081 503.086 231.511 513.367 229.978C523.738 228.445 535.282 227.678 547.998 227.678C564.682 227.678 578.661 229.211 589.934 232.278C601.297 235.344 609.955 239.718 615.907 245.4C621.859 250.991 625.061 257.665 625.512 265.421H590.34C589.257 263.437 587.273 261.543 584.387 259.739C581.501 257.845 577.173 256.312 571.401 255.14C565.629 253.967 557.828 253.381 547.998 253.381C536.454 253.381 527.075 254.102 519.86 255.545C512.645 256.898 507.37 259.108 504.033 262.174C500.696 265.24 499.027 269.299 499.027 274.349C499.027 278.768 500.741 282.42 504.168 285.306C507.595 288.192 513.096 290.357 520.672 291.8C528.247 293.243 538.258 293.964 550.703 293.964C559.451 293.964 567.027 293.603 573.43 292.882C579.923 292.07 585.785 290.853 591.016 289.229C596.337 287.606 601.613 285.577 606.843 283.142L610.09 287.065C604.499 297.617 596.202 305.688 585.199 311.28C574.196 316.871 560.443 319.667 543.94 319.667ZM600.891 316.961C600.891 314.256 601.252 311.189 601.973 307.762C602.695 304.335 603.597 300.773 604.679 297.075C605.851 293.288 606.979 289.725 608.061 286.389H555.303V272.184H627.406V316.961H600.891ZM680.142 280.436V291.259H782.953V316.961H646.323V230.384H782.683V256.086H680.142V266.909H764.014V280.436H680.142Z" fill="#F2F2F2"/>
<g filter="url(#filter0_d_663_74)">
<path d="M153.045 197.282H132.753L206.614 120.986H240.434V207.563H206.614V148.582L216.76 152.776L163.326 207.563H122.742L69.1727 152.911L79.4537 148.718V207.563H45.6344V120.986H79.4537L153.045 197.282ZM393.984 120.986L339.196 185.513V207.563H305.377V185.513L250.59 120.986H290.497L335.003 177.126H309.977L354.077 120.986H393.984Z" fill="#F2F2F2"/>
</g>
<g filter="url(#filter1_d_663_74)">
<path d="M181.317 71.6507L168.737 78.8204V11.5877H202.556V98.165H168.737L66.873 39.1842L79.4537 31.8792V98.165H45.6344V11.5877H79.4537L181.317 71.6507ZM357.828 11.5877V37.2903H255.288V48.7889H339.159V71.786H255.288V98.165H221.468V11.5877H357.828ZM368.64 11.5877H509.329V37.2903H368.64V11.5877ZM422.075 35.5317H455.894V98.165H422.075V35.5317Z" fill="#F2F2F2"/>
</g>
<defs>
<filter id="filter0_d_663_74" x="0.051754" y="120.986" width="439.515" height="200.534" filterUnits="userSpaceOnUse" color-interpolation-filters="sRGB">
<feFlood flood-opacity="0" result="BackgroundImageFix"/>
<feColorMatrix in="SourceAlpha" type="matrix" values="0 0 0 0 0 0 0 0 0 0 0 0 0 0 0 0 0 0 127 0" result="hardAlpha"/>
<feOffset dy="68.3738"/>
<feGaussianBlur stdDeviation="22.7913"/>
<feColorMatrix type="matrix" values="0 0 0 0 0 0 0 0 0 0 0 0 0 0 0 0 0 0 0.3 0"/>
<feBlend mode="normal" in2="BackgroundImageFix" result="effect1_dropShadow_663_74"/>
<feBlend mode="normal" in="SourceGraphic" in2="effect1_dropShadow_663_74" result="shape"/>
</filter>
<filter id="filter1_d_663_74" x="0.051754" y="11.5876" width="554.859" height="200.534" filterUnits="userSpaceOnUse" color-interpolation-filters="sRGB">
<feFlood flood-opacity="0" result="BackgroundImageFix"/>
<feColorMatrix in="SourceAlpha" type="matrix" values="0 0 0 0 0 0 0 0 0 0 0 0 0 0 0 0 0 0 127 0" result="hardAlpha"/>
<feOffset dy="68.3738"/>
<feGaussianBlur stdDeviation="22.7913"/>
<feColorMatrix type="matrix" values="0 0 0 0 0 0 0 0 0 0 0 0 0 0 0 0 0 0 0.3 0"/>
<feBlend mode="normal" in2="BackgroundImageFix" result="effect1_dropShadow_663_74"/>
<feBlend mode="normal" in="SourceGraphic" in2="effect1_dropShadow_663_74" result="shape"/>
</filter>
</defs>
</svg>
